<mxfile host="app.diagrams.net" modified="2023-11-29T03:01:55.284Z" agent="Mozilla/5.0 (Macintosh; Intel Mac OS X 10_15_7) AppleWebKit/537.36 (KHTML, like Gecko) Chrome/119.0.0.0 Safari/537.36" etag="lLev-qOeblCM51aKsZgq" version="22.1.4" type="github">
  <diagram id="C5RBs43oDa-KdzZeNtuy" name="Page-1">
    <mxGraphModel dx="954" dy="532" grid="1" gridSize="10" guides="1" tooltips="1" connect="1" arrows="1" fold="1" page="1" pageScale="1" pageWidth="827" pageHeight="1169" math="0" shadow="0">
      <root>
        <mxCell id="WIyWlLk6GJQsqaUBKTNV-0" />
        <mxCell id="WIyWlLk6GJQsqaUBKTNV-1" parent="WIyWlLk6GJQsqaUBKTNV-0" />
        <mxCell id="KZjx3j4f6pH1jT37qL0M-41" value="" style="edgeStyle=orthogonalEdgeStyle;rounded=0;orthogonalLoop=1;jettySize=auto;html=1;" edge="1" parent="WIyWlLk6GJQsqaUBKTNV-1" source="WIyWlLk6GJQsqaUBKTNV-3" target="KZjx3j4f6pH1jT37qL0M-3">
          <mxGeometry relative="1" as="geometry" />
        </mxCell>
        <mxCell id="WIyWlLk6GJQsqaUBKTNV-3" value="浏览器请求" style="rounded=1;whiteSpace=wrap;html=1;fontSize=12;glass=0;strokeWidth=1;shadow=0;" parent="WIyWlLk6GJQsqaUBKTNV-1" vertex="1">
          <mxGeometry x="270" y="140" width="120" height="40" as="geometry" />
        </mxCell>
        <mxCell id="KZjx3j4f6pH1jT37qL0M-6" value="" style="edgeStyle=orthogonalEdgeStyle;rounded=0;orthogonalLoop=1;jettySize=auto;html=1;" edge="1" parent="WIyWlLk6GJQsqaUBKTNV-1" source="KZjx3j4f6pH1jT37qL0M-3" target="KZjx3j4f6pH1jT37qL0M-5">
          <mxGeometry relative="1" as="geometry" />
        </mxCell>
        <mxCell id="KZjx3j4f6pH1jT37qL0M-3" value="初始化响应返回值" style="rounded=1;whiteSpace=wrap;html=1;fontSize=12;glass=0;strokeWidth=1;shadow=0;" vertex="1" parent="WIyWlLk6GJQsqaUBKTNV-1">
          <mxGeometry x="270" y="230" width="120" height="40" as="geometry" />
        </mxCell>
        <mxCell id="KZjx3j4f6pH1jT37qL0M-36" value="" style="edgeStyle=orthogonalEdgeStyle;rounded=0;orthogonalLoop=1;jettySize=auto;html=1;" edge="1" parent="WIyWlLk6GJQsqaUBKTNV-1" source="KZjx3j4f6pH1jT37qL0M-5" target="KZjx3j4f6pH1jT37qL0M-13">
          <mxGeometry relative="1" as="geometry" />
        </mxCell>
        <mxCell id="KZjx3j4f6pH1jT37qL0M-37" value="yes" style="edgeLabel;html=1;align=center;verticalAlign=middle;resizable=0;points=[];" vertex="1" connectable="0" parent="KZjx3j4f6pH1jT37qL0M-36">
          <mxGeometry x="-0.32" y="3" relative="1" as="geometry">
            <mxPoint x="-23" as="offset" />
          </mxGeometry>
        </mxCell>
        <mxCell id="KZjx3j4f6pH1jT37qL0M-38" value="no" style="edgeStyle=orthogonalEdgeStyle;rounded=0;orthogonalLoop=1;jettySize=auto;html=1;entryX=1;entryY=0.5;entryDx=0;entryDy=0;" edge="1" parent="WIyWlLk6GJQsqaUBKTNV-1" source="KZjx3j4f6pH1jT37qL0M-5" target="KZjx3j4f6pH1jT37qL0M-31">
          <mxGeometry y="20" relative="1" as="geometry">
            <Array as="points">
              <mxPoint x="330" y="560" />
              <mxPoint x="560" y="560" />
              <mxPoint x="560" y="1120" />
            </Array>
            <mxPoint as="offset" />
          </mxGeometry>
        </mxCell>
        <mxCell id="KZjx3j4f6pH1jT37qL0M-5" value="判断是否开启验证码验证?" style="rhombus;whiteSpace=wrap;html=1;shadow=0;fontFamily=Helvetica;fontSize=12;align=center;strokeWidth=1;spacing=6;spacingTop=-4;" vertex="1" parent="WIyWlLk6GJQsqaUBKTNV-1">
          <mxGeometry x="280" y="320" width="100" height="80" as="geometry" />
        </mxCell>
        <mxCell id="KZjx3j4f6pH1jT37qL0M-35" value="" style="edgeStyle=orthogonalEdgeStyle;rounded=0;orthogonalLoop=1;jettySize=auto;html=1;" edge="1" parent="WIyWlLk6GJQsqaUBKTNV-1" source="KZjx3j4f6pH1jT37qL0M-13" target="KZjx3j4f6pH1jT37qL0M-16">
          <mxGeometry relative="1" as="geometry" />
        </mxCell>
        <mxCell id="KZjx3j4f6pH1jT37qL0M-13" value="使用id生成类生成uuid" style="rounded=1;whiteSpace=wrap;html=1;fontSize=12;glass=0;strokeWidth=1;shadow=0;" vertex="1" parent="WIyWlLk6GJQsqaUBKTNV-1">
          <mxGeometry x="270" y="450" width="120" height="40" as="geometry" />
        </mxCell>
        <mxCell id="KZjx3j4f6pH1jT37qL0M-34" value="" style="edgeStyle=orthogonalEdgeStyle;rounded=0;orthogonalLoop=1;jettySize=auto;html=1;" edge="1" parent="WIyWlLk6GJQsqaUBKTNV-1" source="KZjx3j4f6pH1jT37qL0M-16" target="KZjx3j4f6pH1jT37qL0M-17">
          <mxGeometry relative="1" as="geometry" />
        </mxCell>
        <mxCell id="KZjx3j4f6pH1jT37qL0M-16" value="拼接uuid得到缓存的key" style="rounded=1;whiteSpace=wrap;html=1;fontSize=12;glass=0;strokeWidth=1;shadow=0;" vertex="1" parent="WIyWlLk6GJQsqaUBKTNV-1">
          <mxGeometry x="270" y="540" width="120" height="40" as="geometry" />
        </mxCell>
        <mxCell id="KZjx3j4f6pH1jT37qL0M-17" value="判断验证类型" style="rhombus;whiteSpace=wrap;html=1;shadow=0;fontFamily=Helvetica;fontSize=12;align=center;strokeWidth=1;spacing=6;spacingTop=-4;" vertex="1" parent="WIyWlLk6GJQsqaUBKTNV-1">
          <mxGeometry x="280" y="620" width="100" height="80" as="geometry" />
        </mxCell>
        <mxCell id="KZjx3j4f6pH1jT37qL0M-26" style="edgeStyle=orthogonalEdgeStyle;rounded=0;orthogonalLoop=1;jettySize=auto;html=1;" edge="1" parent="WIyWlLk6GJQsqaUBKTNV-1" source="KZjx3j4f6pH1jT37qL0M-18" target="KZjx3j4f6pH1jT37qL0M-25">
          <mxGeometry relative="1" as="geometry" />
        </mxCell>
        <mxCell id="KZjx3j4f6pH1jT37qL0M-18" value="captchaProducerMath生成验证码" style="rounded=1;whiteSpace=wrap;html=1;fontSize=12;glass=0;strokeWidth=1;shadow=0;" vertex="1" parent="WIyWlLk6GJQsqaUBKTNV-1">
          <mxGeometry x="170" y="730" width="120" height="40" as="geometry" />
        </mxCell>
        <mxCell id="KZjx3j4f6pH1jT37qL0M-27" style="edgeStyle=orthogonalEdgeStyle;rounded=0;orthogonalLoop=1;jettySize=auto;html=1;entryX=0.5;entryY=0;entryDx=0;entryDy=0;" edge="1" parent="WIyWlLk6GJQsqaUBKTNV-1" source="KZjx3j4f6pH1jT37qL0M-19" target="KZjx3j4f6pH1jT37qL0M-25">
          <mxGeometry relative="1" as="geometry" />
        </mxCell>
        <mxCell id="KZjx3j4f6pH1jT37qL0M-19" value="captchaProducer生成验证码" style="rounded=1;whiteSpace=wrap;html=1;fontSize=12;glass=0;strokeWidth=1;shadow=0;" vertex="1" parent="WIyWlLk6GJQsqaUBKTNV-1">
          <mxGeometry x="380" y="730" width="120" height="40" as="geometry" />
        </mxCell>
        <mxCell id="KZjx3j4f6pH1jT37qL0M-21" style="edgeStyle=orthogonalEdgeStyle;rounded=0;orthogonalLoop=1;jettySize=auto;html=1;entryX=0.442;entryY=0;entryDx=0;entryDy=0;entryPerimeter=0;" edge="1" parent="WIyWlLk6GJQsqaUBKTNV-1" source="KZjx3j4f6pH1jT37qL0M-17" target="KZjx3j4f6pH1jT37qL0M-18">
          <mxGeometry relative="1" as="geometry">
            <Array as="points">
              <mxPoint x="223" y="660" />
            </Array>
          </mxGeometry>
        </mxCell>
        <mxCell id="KZjx3j4f6pH1jT37qL0M-23" value="math" style="edgeLabel;html=1;align=center;verticalAlign=middle;resizable=0;points=[];" vertex="1" connectable="0" parent="KZjx3j4f6pH1jT37qL0M-21">
          <mxGeometry x="0.2441" y="-4" relative="1" as="geometry">
            <mxPoint x="-9" as="offset" />
          </mxGeometry>
        </mxCell>
        <mxCell id="KZjx3j4f6pH1jT37qL0M-22" style="edgeStyle=orthogonalEdgeStyle;rounded=0;orthogonalLoop=1;jettySize=auto;html=1;entryX=0.575;entryY=0;entryDx=0;entryDy=0;entryPerimeter=0;" edge="1" parent="WIyWlLk6GJQsqaUBKTNV-1" source="KZjx3j4f6pH1jT37qL0M-17" target="KZjx3j4f6pH1jT37qL0M-19">
          <mxGeometry relative="1" as="geometry">
            <Array as="points">
              <mxPoint x="449" y="660" />
            </Array>
          </mxGeometry>
        </mxCell>
        <mxCell id="KZjx3j4f6pH1jT37qL0M-24" value="char" style="edgeLabel;html=1;align=center;verticalAlign=middle;resizable=0;points=[];" vertex="1" connectable="0" parent="KZjx3j4f6pH1jT37qL0M-22">
          <mxGeometry x="0.234" y="2" relative="1" as="geometry">
            <mxPoint x="9" y="3" as="offset" />
          </mxGeometry>
        </mxCell>
        <mxCell id="KZjx3j4f6pH1jT37qL0M-29" style="edgeStyle=orthogonalEdgeStyle;rounded=0;orthogonalLoop=1;jettySize=auto;html=1;" edge="1" parent="WIyWlLk6GJQsqaUBKTNV-1" source="KZjx3j4f6pH1jT37qL0M-25" target="KZjx3j4f6pH1jT37qL0M-28">
          <mxGeometry relative="1" as="geometry" />
        </mxCell>
        <mxCell id="KZjx3j4f6pH1jT37qL0M-25" value="存入缓存" style="rounded=1;whiteSpace=wrap;html=1;fontSize=12;glass=0;strokeWidth=1;shadow=0;" vertex="1" parent="WIyWlLk6GJQsqaUBKTNV-1">
          <mxGeometry x="270" y="850" width="120" height="40" as="geometry" />
        </mxCell>
        <mxCell id="KZjx3j4f6pH1jT37qL0M-32" style="edgeStyle=orthogonalEdgeStyle;rounded=0;orthogonalLoop=1;jettySize=auto;html=1;" edge="1" parent="WIyWlLk6GJQsqaUBKTNV-1" source="KZjx3j4f6pH1jT37qL0M-28" target="KZjx3j4f6pH1jT37qL0M-30">
          <mxGeometry relative="1" as="geometry" />
        </mxCell>
        <mxCell id="KZjx3j4f6pH1jT37qL0M-28" value="转换流将图片转换为输出流输出" style="rounded=1;whiteSpace=wrap;html=1;fontSize=12;glass=0;strokeWidth=1;shadow=0;" vertex="1" parent="WIyWlLk6GJQsqaUBKTNV-1">
          <mxGeometry x="270" y="940" width="120" height="40" as="geometry" />
        </mxCell>
        <mxCell id="KZjx3j4f6pH1jT37qL0M-33" value="" style="edgeStyle=orthogonalEdgeStyle;rounded=0;orthogonalLoop=1;jettySize=auto;html=1;" edge="1" parent="WIyWlLk6GJQsqaUBKTNV-1" source="KZjx3j4f6pH1jT37qL0M-30" target="KZjx3j4f6pH1jT37qL0M-31">
          <mxGeometry relative="1" as="geometry" />
        </mxCell>
        <mxCell id="KZjx3j4f6pH1jT37qL0M-30" value="返回Ajax对象" style="rounded=1;whiteSpace=wrap;html=1;fontSize=12;glass=0;strokeWidth=1;shadow=0;" vertex="1" parent="WIyWlLk6GJQsqaUBKTNV-1">
          <mxGeometry x="270" y="1020" width="120" height="40" as="geometry" />
        </mxCell>
        <mxCell id="KZjx3j4f6pH1jT37qL0M-31" value="结束" style="rounded=1;whiteSpace=wrap;html=1;fontSize=12;glass=0;strokeWidth=1;shadow=0;" vertex="1" parent="WIyWlLk6GJQsqaUBKTNV-1">
          <mxGeometry x="270" y="1100" width="120" height="40" as="geometry" />
        </mxCell>
        <mxCell id="KZjx3j4f6pH1jT37qL0M-40" value="" style="edgeStyle=orthogonalEdgeStyle;rounded=0;orthogonalLoop=1;jettySize=auto;html=1;" edge="1" parent="WIyWlLk6GJQsqaUBKTNV-1" source="KZjx3j4f6pH1jT37qL0M-39" target="WIyWlLk6GJQsqaUBKTNV-3">
          <mxGeometry relative="1" as="geometry" />
        </mxCell>
        <mxCell id="KZjx3j4f6pH1jT37qL0M-39" value="开始" style="rounded=1;whiteSpace=wrap;html=1;fontSize=12;glass=0;strokeWidth=1;shadow=0;" vertex="1" parent="WIyWlLk6GJQsqaUBKTNV-1">
          <mxGeometry x="270" y="60" width="120" height="40" as="geometry" />
        </mxCell>
      </root>
    </mxGraphModel>
  </diagram>
</mxfile>
